mastitorrents.com
 
http://mastitorrents.com/forums/index.php

General
Complete name : Veronique.Sexy.Brunette .Hardcore.Scene.XViD-FooKaS.avi
Format : AVI
Format/Info : Audio Video Interleave
File size : 278 MiB
Duration : 22mn 33s
Overall bit rate : 1 720 Kbps
Writing library : MPlayer

Video
ID : 0
Format : MPEG-4 Visual
Format profile : Simple@L1
Format settings, BVOP : No
Format settings, QPel : No
Format settings, GMC : No warppoints
Format settings, Matrix : Default (H.263)
Codec ID : DX50
Codec ID/Hint : DivX 5
Duration : 22mn 33s
Bit rate : 1 451 Kbps
Width : 512 pixels
Height : 288 pixels
Display aspect ratio : 16:9
Frame rate : 29.970 fps
Color space : YUV
Chroma subsampling : 4:2:0
Bit depth : 8 bits
Scan type : Interlaced
Scan order : Top Field First
Compression mode : Lossy
Bits/(Pixel*Frame) : 0.328
Stream size : 234 MiB (84%)
Writing library : Lavc52.0.0

Audio
ID : 1
Format : MPEG Audio
Format version : Version 1
Format profile : Layer 3
Mode : Joint stereo
Codec ID : 55
Codec ID/Hint : MP3
Duration : 22mn 33s
Bit rate mode : Constant
Bit rate : 256 Kbps
Channel(s) : 2 channels
Sampling rate : 44.1 KHz
Compression mode : Lossy
Stream size : 41.3 MiB (15%)
Alignment : Aligned on interleaves
Interleave, duration : 26 ms (0.78 video frame)
Interleave, preload duration : 809 ms
Writing library : LAME3.97